<svg width="157" height="156" viewBox="0 0 157 156" fill="none" xmlns="http://www.w3.org/2000/svg">
<g id="noto-v1:orange-book">
<path id="Vector" d="M145.032 93.7463C144.69 86.0317 142.082 81.0104 137.353 76.6473C125.556 65.7638 111.358 55.3679 98.2681 46.0688C92.1988 41.7545 85.4469 36.0629 78.4147 33.4304C68.5063 29.7132 57.306 31.0417 46.6906 32.5407C42.0594 33.1867 37.3916 33.9301 32.8335 35.0148C27.5441 36.2701 21.2553 37.7692 16.7703 40.9501C12.7485 43.802 13.236 47.3851 15.2103 50.6879C15.5028 52.2113 15.2225 53.6495 15.2347 55.1973C15.2591 58.1101 14.93 61.0229 14.2231 63.8504C13.7722 65.5932 13.175 67.2751 12.6022 68.9813C10.3597 75.587 16.5997 81.1079 21.231 84.9348C23.8147 87.0798 26.5935 88.9932 29.2016 91.126C39.3172 99.3648 49.7131 106.824 60.0725 114.66C72.2235 123.862 76.8547 127.067 92.0159 121.887C96.1109 120.498 100.291 119.377 104.484 118.304C110.407 116.781 118.292 115.343 124.069 113.319C129.919 111.272 137.463 108.554 141.753 103.862C143.898 101.522 144.824 98.1826 144.837 95.0626C144.983 94.6726 145.056 94.246 145.032 93.7463Z" fill="white"/>
<path id="Vector_2" d="M25.655 43.9358C31.4928 41.4739 54.4053 37.9274 59.4631 37.3302C63.7531 36.8305 69.1522 36.148 73.4056 36.7817C75.1119 37.0621 80.6206 39.9505 86.3609 43.8383C98.061 51.7967 128.92 74.9286 130.87 76.7202C131.382 77.1955 135.635 81.2417 133.49 81.2174C131.321 81.193 129.176 81.3392 127.031 81.5952C123.374 82.0217 102.034 87.1161 92.345 89.4805C90.4194 89.9436 85.2397 90.9064 83.8138 91.1989C79.7553 92.0155 76.4403 90.7236 73.1131 88.408C66.2028 83.5939 23.2297 50.4805 22.1085 48.1405C21.3041 46.483 22.9372 45.0814 25.655 43.9358Z" fill="#BDCF46"/>
<path id="Vector_3" d="M146.08 85.6295C144.739 82.1195 141.583 79.3408 138.731 76.6961C125.678 64.6548 111.955 54.783 97.5612 44.4114C93.8684 41.7423 90.2487 39.1708 86.4097 36.7211C84.5084 35.5023 82.1441 34.4786 80.1209 33.467C73.4178 30.1155 66.4588 30.3592 59.2072 31.188C46.0325 32.6992 33.2966 33.138 20.6459 37.4645C17.1238 38.6711 13.6625 40.353 12.8581 44.5942C12.5413 46.3126 13.4919 49.2255 14.1013 50.7733C14.5888 51.9676 10.5303 66.812 9.92094 68.5914C8.40969 73.0276 10.5913 77.0008 13.6138 80.328C15.2713 82.1561 61.9006 118.097 63.0706 118.95C67.5191 122.216 71.0413 124.471 74.8072 125.544C79.5725 126.909 84.7278 126.397 92.6375 123.703C95.8184 122.619 121.388 116.269 135.598 110.65C140.449 108.737 143.228 106.165 144.361 104.922C145.738 103.411 146.64 101.498 147.128 99.4867C147.432 98.2558 147.567 96.9883 147.579 95.7573C147.701 95.3795 147.042 88.1767 146.08 85.6295ZM25.655 43.9361C31.4928 41.4742 54.4053 37.9276 59.4631 37.3305C63.7531 36.8308 69.1522 36.1483 73.4056 36.782C75.1119 37.0623 80.6206 39.9508 86.3609 43.8386C98.0609 51.797 128.92 74.9289 130.87 76.7205C131.382 77.1958 135.635 81.242 133.49 81.2176C131.321 81.1933 129.176 81.3395 127.031 81.5955C123.374 82.022 102.034 87.1164 92.345 89.4808C90.4194 89.9439 85.2397 90.9067 83.8138 91.1992C79.7553 92.0158 76.4403 90.7239 73.1131 88.4083C66.2028 83.5942 23.2297 50.4808 22.1084 48.1408C21.3041 46.4833 22.9372 45.0817 25.655 43.9361ZM20.7313 78.2561C19.5369 77.0495 14.8447 73.9295 16.1122 69.993C17.5016 65.7395 18.8178 58.8658 19.1103 54.3198C24.4119 58.5855 73.8931 96.3545 76.9644 97.2198C78.8778 103.18 78.9022 109.87 76.7816 115.757C76.4891 116.574 76.2575 117.366 75.9041 118.158C74.5391 117.646 73.2106 116.939 71.7725 116.05C69.4934 114.624 24.7409 82.2901 20.7313 78.2561ZM136.074 103.021C131.625 106.19 124.91 107.47 120.523 108.774C111.102 111.565 101.607 114.112 92.0891 116.537C89.2494 117.256 86.3975 118.121 83.5091 118.597C84.0453 117.415 84.4963 116.22 84.8131 114.94C85.6663 111.577 85.8247 107.969 85.4591 104.532C85.2641 102.765 85.1909 99.5476 84.7766 97.8292C85.2763 97.7926 96.9275 95.0383 106.129 92.6983C115.489 90.3095 126.348 87.0067 132.881 86.8848C135.464 86.8361 137.366 88.0305 138.231 88.7373C140.51 90.602 141.022 94.0511 140.461 96.7933C139.901 99.4623 138.255 101.473 136.074 103.021Z" fill="#276033"/>
<path id="Vector_4" d="M38.6226 70.2974C45.6913 75.7208 64.1432 89.8218 72.6379 96.2933C75.3313 98.353 78.3538 100.474 84.4963 99.3646C90.6266 98.2433 128.932 88.3227 128.932 88.3227C132.43 87.4087 136.305 87.1649 139.876 87.6524C141.18 87.823 142.448 88.2252 143.606 88.8468C144.008 89.0662 144.447 89.2977 144.812 89.578C145.007 89.7365 145.141 89.9436 145.361 90.0899C148.188 92.0155 146.458 86.263 146.128 85.483C145.348 83.594 144.276 81.8268 143.033 80.1937C142.044 78.9043 140.947 77.7015 139.754 76.5983C126.702 64.5449 112.284 54.1124 97.8904 43.7408C94.1976 41.0718 90.5413 38.3052 86.7022 35.8555C84.801 34.6368 82.8754 33.4424 80.8522 32.4308C74.1491 29.0793 66.6416 29.4205 59.4022 30.2493C46.2154 31.7605 33.0407 32.504 20.3901 36.8305C16.8557 38.0371 12.6022 40.304 11.7979 44.5574C11.4688 46.2758 11.4688 49.274 14.5035 51.943C16.7216 53.9174 29.3113 63.1555 38.6226 70.2974Z" fill="#00A624"/>
</g>
</svg>
