<svg width="119" height="119" viewBox="0 0 119 119" fill="none" xmlns="http://www.w3.org/2000/svg">
<rect y="30" width="89" height="89" rx="44.5" fill="#E3FFD9"/>
<g opacity="0.8" clip-path="url(#clip0_2_1232)">
<path fill-rule="evenodd" clip-rule="evenodd" d="M106.889 66.4322L106.904 66.4146C101.64 54.904 102.542 40.9689 110.483 29.9682C110.609 29.7965 110.734 29.631 110.86 29.4593L110.848 29.4517C110.87 29.4222 110.899 29.3933 110.921 29.3637C111.478 28.5869 111.308 27.5067 110.531 26.9499C110.164 26.6832 109.728 26.5877 109.315 26.641C109.177 26.6268 109.037 26.619 108.893 26.6042C95.4008 25.2248 84.1184 19.2916 79.0234 7.68365L78.9982 7.68107C78.9691 7.5921 78.9333 7.50547 78.8911 7.4219C78.8754 7.38848 78.8528 7.36071 78.8371 7.32728C78.8045 7.27303 78.7718 7.21877 78.7322 7.17018C78.7096 7.1424 78.6876 7.10834 78.6587 7.07992C78.6135 7.02438 78.5613 6.97449 78.5028 6.92396C78.4852 6.90943 78.4683 6.88861 78.4506 6.87408C78.3739 6.81532 78.2965 6.76285 78.2192 6.71039L78.1285 6.66294C78.0681 6.6313 78.0008 6.60532 77.9334 6.57935C77.9026 6.56983 77.8724 6.55401 77.8409 6.55079C77.742 6.52159 77.6425 6.49869 77.5418 6.48839L77.5355 6.48774L77.5292 6.4871C77.4284 6.47679 77.3263 6.47909 77.2236 6.48768C77.1915 6.49076 77.153 6.49319 77.1202 6.50257L76.9255 6.53994C76.8864 6.54868 76.8536 6.55805 76.8139 6.57309C76.7477 6.59814 76.6815 6.62319 76.6146 6.65455C76.5547 6.68024 76.4998 6.71918 76.4456 6.75182C76.4046 6.77945 76.3642 6.80078 76.3295 6.82906C76.2815 6.86234 76.2399 6.89627 76.2039 6.93714C76.1761 6.95976 76.154 6.98932 76.1262 7.01194C76.0833 7.05847 76.041 7.09869 76.0043 7.14586C75.9967 7.15782 75.9892 7.16977 75.9822 7.17542C75.938 7.23455 75.8944 7.28737 75.8621 7.35408L75.8432 7.35215C68.5179 17.6839 56.2803 21.2188 42.8074 19.8414C42.6688 19.8272 42.5302 19.8131 42.386 19.792C41.9919 19.6626 41.5458 19.6679 41.1328 19.8484C40.2656 20.2371 39.8747 21.26 40.2627 22.1334C40.2784 22.1669 40.2941 22.2003 40.316 22.2343L40.3028 22.2394C40.3912 22.433 40.4802 22.6203 40.5686 22.8139C46.1137 35.187 44.1773 49.0228 36.6991 59.2307L36.7098 59.2509C36.6453 59.3207 36.5859 59.4037 36.5328 59.4874C36.3426 59.7306 36.221 60.0204 36.1808 60.3266C36.1407 60.6328 36.1834 60.9442 36.3045 61.2283C36.4256 61.5124 36.6207 61.7588 36.8694 61.9418C37.1181 62.1249 37.4114 62.2378 37.7186 62.269C37.7564 62.2728 37.7949 62.2704 37.8327 62.2743L37.8314 62.2869C38.0399 62.3018 38.254 62.3237 38.4619 62.345C51.9348 63.7224 63.2116 69.5851 68.296 81.1728L68.3149 81.1747C68.3336 81.2403 68.3656 81.3009 68.3913 81.3608C68.3963 81.374 68.4007 81.3935 68.412 81.4074C68.4384 81.461 68.4716 81.509 68.498 81.5626C68.52 81.5967 68.5419 81.6307 68.5645 81.6585C68.5985 81.7002 68.6318 81.7481 68.6663 81.7835C68.7009 81.8188 68.7355 81.8542 68.7763 81.8902C68.8166 81.9325 68.8637 81.9691 68.9109 82.0058C68.97 82.05 69.0355 82.0949 69.1015 82.1335C69.1317 82.1493 69.1682 82.1657 69.2047 82.1822C69.2652 82.2138 69.3262 82.2392 69.3936 82.2652C69.4244 82.2747 69.4546 82.2905 69.4918 82.3007C69.5906 82.3298 69.6901 82.3527 69.7909 82.3631L69.8035 82.3643C69.9106 82.3753 70.0126 82.373 70.109 82.3638L70.2054 82.3545C70.2767 82.3427 70.3479 82.3309 70.4197 82.3128C70.4525 82.3034 70.4853 82.294 70.5118 82.284C70.6038 82.2552 70.6902 82.2195 70.7779 82.1712C70.7981 82.1605 70.812 82.1492 70.8322 82.1386C70.8996 82.1009 70.9615 82.0563 71.0233 82.0117L71.1066 81.9439C71.1559 81.898 71.2051 81.8521 71.2481 81.8056L71.3194 81.7301C71.3775 81.6597 71.43 81.5823 71.4768 81.498L71.502 81.5006C78.8387 71.1827 91.0812 67.7246 104.573 69.104C104.781 69.1253 104.994 69.1535 105.202 69.1747L105.203 69.1684C105.241 69.1723 105.278 69.1824 105.316 69.1863C105.623 69.218 105.933 69.1667 106.213 69.0377C106.494 68.9088 106.735 68.707 106.911 68.4533C107.087 68.1996 107.192 67.9033 107.215 67.5953C107.237 67.2873 107.177 66.9789 107.04 66.7022C106.979 66.6069 106.937 66.5199 106.889 66.4322Z" fill="white"/>
<path fill-rule="evenodd" clip-rule="evenodd" d="M107.015 66.6297C106.98 66.5433 106.944 66.4569 106.894 66.3818L106.909 66.3642C101.645 54.8536 102.547 40.9185 110.489 29.9178C110.525 29.8706 110.563 29.8172 110.599 29.77C110.734 29.6311 110.846 29.477 110.926 29.3133C111.483 28.5365 111.312 27.4626 110.536 26.8995C110.169 26.6328 109.733 26.5374 109.32 26.5906C109.182 26.5765 109.043 26.5686 108.898 26.5538C95.5004 25.1841 84.2872 19.3216 79.1433 7.88049C79.0179 7.30123 78.6215 6.82155 78.0789 6.58787C78.0516 6.57367 78.0229 6.56221 77.9933 6.55366C77.9568 6.5372 77.9203 6.52074 77.8831 6.51058C77.8705 6.50929 77.858 6.508 77.846 6.50041C77.7472 6.47121 77.6477 6.44831 77.5469 6.43801L77.5406 6.43737L77.5343 6.43672C77.4335 6.42642 77.3314 6.42871 77.2287 6.43731C77.1714 6.43781 77.1191 6.45155 77.0611 6.45835L76.9899 6.47017C76.3993 6.58163 75.9064 6.98312 75.6658 7.53132C68.3207 17.6828 56.172 21.1569 42.7999 19.7897C42.6613 19.7756 42.5227 19.7614 42.3785 19.7403C41.9844 19.6109 41.5384 19.6162 41.1253 19.7967C40.7617 19.9598 40.4658 20.2438 40.2878 20.6003C40.1098 20.9569 40.0607 21.364 40.1489 21.7527C40.1814 22.1188 40.318 22.4637 40.5618 22.7559C40.5618 22.7559 40.5612 22.7622 40.5675 22.7629C46.1018 35.1158 44.1812 48.9214 36.7358 59.1199C36.4183 59.4248 36.224 59.8313 36.1802 60.2596C36.1782 60.2785 36.17 60.2968 36.1681 60.3157C36.1649 60.3472 36.1679 60.3793 36.171 60.4114C36.1735 60.4499 36.1696 60.4877 36.172 60.5261C36.1811 60.998 36.3792 61.4256 36.6979 61.7319C36.7268 61.7603 36.7495 61.7881 36.779 61.8102C36.7847 61.8171 36.791 61.8178 36.7966 61.8247C37.1877 62.1702 37.7128 62.3257 38.2346 62.2645L38.4551 62.287C51.7831 63.6496 62.9562 69.4062 68.123 80.7478C68.1584 81.176 68.3427 81.5783 68.644 81.8846C68.9452 82.191 69.3443 82.3821 69.7718 82.4248C70.6662 82.5162 71.4745 81.956 71.7252 81.1225C79.0872 71.0554 91.2066 67.6802 104.56 69.0454L104.736 69.0634C105.13 69.1991 105.544 69.1969 105.926 69.0642C106.266 68.9748 106.57 68.7841 106.799 68.5176C107.027 68.251 107.169 67.9212 107.205 67.572C107.236 67.2697 107.183 66.9842 107.069 66.7243C107.047 66.6966 107.031 66.6631 107.015 66.6297ZM75.8048 41.4685L77.0335 29.4506C80.0024 32.1599 83.2852 34.5385 86.8309 36.524L75.8048 41.4685ZM88.3518 39.8872C87.4805 43.8651 87.0797 47.9101 87.1395 51.9322L77.3125 44.8367L88.3518 39.8872ZM72.139 41.0937L62.3479 34.0209C66.1997 32.8001 69.8976 31.1386 73.3683 29.0695L72.139 41.0937ZM69.9808 44.0871L58.9478 49.0373C59.8196 45.1167 60.2444 41.0869 60.1954 37.0213L69.9808 44.0871ZM56.7761 34.546C57.1132 40.0073 56.5444 45.4868 55.0927 50.7625L42.4919 56.4179C47.2798 47.437 48.6051 36.7146 45.6094 26.4861L56.7761 34.546ZM71.4892 47.4491L70.2682 59.3914C67.3045 56.6861 64.0414 54.3282 60.5426 52.3635L71.4892 47.4491ZM75.155 47.8239L84.887 54.8524C81.0615 56.0697 77.3869 57.7182 73.9341 59.7662L75.155 47.8239ZM90.5713 54.4089C90.212 48.9379 90.765 43.4452 92.2076 38.1557L104.801 32.5059C99.77 41.9393 98.8956 52.7332 101.79 62.5187L90.5713 54.4089ZM103.186 29.1903L90.6998 34.7874C85.789 32.3597 81.3161 29.1321 77.4643 25.2367L78.6106 14.0251C84.0484 22.1548 92.8078 27.1173 103.186 29.1903ZM74.9441 13.6566L73.7978 24.8683C69.2412 27.9025 64.2121 30.1585 58.916 31.5443L47.8147 23.5293C58.3912 23.605 67.9735 20.5177 74.9441 13.6566ZM44.2469 59.6714L56.6875 54.0887C61.6126 56.5271 66.0432 59.755 69.8387 63.5926L68.7002 74.7287C63.2823 66.6519 54.5688 61.7387 44.2469 59.6714ZM72.3654 75.1098L73.5039 63.9737C78.043 60.9606 83.0484 58.7176 88.3182 57.3353L99.3661 65.3131C88.8324 65.2544 79.3049 68.3028 72.3654 75.1098Z" fill="#00A624" stroke="white" stroke-linecap="round" stroke-linejoin="round"/>
</g>
<g opacity="0.3" clip-path="url(#clip1_2_1232)">
<path fill-rule="evenodd" clip-rule="evenodd" d="M43.2253 98.515L43.2317 98.5072C40.9114 93.4335 41.3094 87.2912 44.8096 82.4423C44.8651 82.3666 44.9202 82.2937 44.9756 82.218L44.9704 82.2147C44.9801 82.2017 44.9926 82.1889 45.0024 82.1759C45.2478 81.8335 45.173 81.3573 44.8306 81.1119C44.6687 80.9944 44.4766 80.9523 44.2947 80.9758C44.2336 80.9695 44.1723 80.9661 44.1084 80.9595C38.1615 80.3515 33.1884 77.7363 30.9427 72.6198L30.9316 72.6186C30.9187 72.5794 30.9029 72.5412 30.8843 72.5044C30.8774 72.4897 30.8674 72.4774 30.8605 72.4627C30.8461 72.4388 30.8318 72.4149 30.8143 72.3934C30.8043 72.3812 30.7947 72.3662 30.7819 72.3536C30.762 72.3292 30.739 72.3072 30.7132 72.2849C30.7054 72.2785 30.698 72.2693 30.6902 72.2629C30.6564 72.237 30.6223 72.2139 30.5882 72.1908L30.5482 72.1698C30.5216 72.1559 30.4919 72.1445 30.4622 72.133C30.4486 72.1288 30.4353 72.1218 30.4214 72.1204C30.3779 72.1075 30.334 72.0975 30.2896 72.0929L30.2868 72.0926L30.284 72.0923C30.2396 72.0878 30.1946 72.0888 30.1493 72.0926C30.1352 72.094 30.1182 72.095 30.1038 72.0992L30.0179 72.1156C30.0007 72.1195 29.9863 72.1236 29.9688 72.1302C29.9396 72.1413 29.9104 72.1523 29.8809 72.1661C29.8545 72.1775 29.8303 72.1946 29.8064 72.209C29.7883 72.2212 29.7705 72.2306 29.7552 72.2431C29.7341 72.2577 29.7157 72.2727 29.6999 72.2907C29.6876 72.3007 29.6779 72.3137 29.6656 72.3237C29.6467 72.3442 29.6281 72.3619 29.6119 72.3827C29.6086 72.388 29.6052 72.3933 29.6022 72.3957C29.5827 72.4218 29.5635 72.4451 29.5492 72.4745L29.5409 72.4736C26.312 77.0277 20.9179 78.5858 14.9793 77.9787C14.9183 77.9724 14.8572 77.9662 14.7936 77.9569C14.6199 77.8998 14.4233 77.9022 14.2412 77.9817C13.859 78.1531 13.6867 78.6039 13.8577 78.9889C13.8646 79.0037 13.8715 79.0184 13.8812 79.0334L13.8754 79.0356C13.9143 79.121 13.9536 79.2035 13.9926 79.2889C16.4367 84.7427 15.5832 90.8412 12.2869 95.3407L12.2916 95.3496C12.2632 95.3803 12.2371 95.4169 12.2137 95.4538C12.1298 95.561 12.0762 95.6888 12.0585 95.8237C12.0408 95.9587 12.0596 96.096 12.113 96.2212C12.1664 96.3464 12.2524 96.455 12.362 96.5357C12.4716 96.6164 12.6009 96.6662 12.7363 96.6799C12.753 96.6816 12.7699 96.6805 12.7866 96.6822L12.786 96.6878C12.8779 96.6944 12.9723 96.704 13.064 96.7134C19.0025 97.3205 23.9731 99.9047 26.2142 105.012L26.2226 105.013C26.2308 105.042 26.2449 105.069 26.2562 105.095C26.2585 105.101 26.2604 105.11 26.2654 105.116C26.277 105.139 26.2916 105.161 26.3033 105.184C26.3129 105.199 26.3226 105.214 26.3326 105.226C26.3476 105.245 26.3622 105.266 26.3775 105.281C26.3927 105.297 26.4079 105.313 26.426 105.329C26.4437 105.347 26.4645 105.363 26.4853 105.379C26.5113 105.399 26.5402 105.419 26.5693 105.436C26.5826 105.443 26.5987 105.45 26.6148 105.457C26.6414 105.471 26.6683 105.482 26.698 105.494C26.7116 105.498 26.7249 105.505 26.7413 105.509C26.7849 105.522 26.8287 105.532 26.8731 105.537L26.8787 105.538C26.9259 105.542 26.9709 105.541 27.0134 105.537L27.0559 105.533C27.0873 105.528 27.1187 105.523 27.1503 105.515C27.1648 105.511 27.1792 105.507 27.1909 105.502C27.2315 105.489 27.2696 105.474 27.3082 105.452C27.3171 105.448 27.3232 105.443 27.3321 105.438C27.3619 105.421 27.3891 105.402 27.4164 105.382L27.4531 105.352C27.4748 105.332 27.4965 105.312 27.5154 105.291L27.5469 105.258C27.5725 105.227 27.5956 105.193 27.6163 105.156L27.6274 105.157C30.8612 100.609 36.2575 99.0846 42.2044 99.6926C42.296 99.702 42.3901 99.7144 42.4817 99.7238L42.482 99.721C42.4987 99.7227 42.5151 99.7272 42.5317 99.7289C42.6671 99.7429 42.8038 99.7203 42.9275 99.6634C43.0512 99.6066 43.1574 99.5176 43.235 99.4058C43.3126 99.294 43.3588 99.1634 43.3688 99.0276C43.3788 98.8919 43.3521 98.7559 43.2917 98.634C43.2651 98.592 43.2466 98.5536 43.2253 98.515Z" fill="white"/>
<path fill-rule="evenodd" clip-rule="evenodd" d="M43.2809 98.602C43.2652 98.5639 43.2494 98.5259 43.2276 98.4928L43.234 98.485C40.9137 93.4113 41.3116 87.269 44.8119 82.4201C44.828 82.3993 44.8445 82.3758 44.8606 82.355C44.9202 82.2937 44.9692 82.2258 45.0046 82.1537C45.2501 81.8113 45.175 81.3379 44.8329 81.0897C44.671 80.9722 44.4789 80.9301 44.297 80.9536C44.2359 80.9473 44.1745 80.9439 44.1107 80.9373C38.2054 80.3336 33.2628 77.7495 30.9955 72.7065C30.9403 72.4512 30.7655 72.2398 30.5263 72.1368C30.5143 72.1305 30.5017 72.1254 30.4886 72.1217C30.4725 72.1144 30.4564 72.1072 30.4401 72.1027C30.4345 72.1021 30.429 72.1015 30.4237 72.0982C30.3801 72.0853 30.3363 72.0752 30.2918 72.0707L30.2891 72.0704L30.2863 72.0701C30.2419 72.0656 30.1969 72.0666 30.1516 72.0704C30.1263 72.0706 30.1033 72.0767 30.0777 72.0797L30.0463 72.0849C29.786 72.134 29.5687 72.311 29.4627 72.5526C26.2251 77.0272 20.8702 78.5585 14.9761 77.9559C14.915 77.9496 14.8539 77.9434 14.7903 77.9341C14.6166 77.8771 14.42 77.8794 14.2379 77.959C14.0777 78.0309 13.9472 78.156 13.8688 78.3132C13.7903 78.4703 13.7687 78.6498 13.8075 78.8211C13.8219 78.9825 13.8821 79.1345 13.9896 79.2633C13.9896 79.2633 13.9893 79.2661 13.992 79.2664C16.4315 84.7113 15.5849 90.7965 12.3031 95.2918C12.1632 95.4262 12.0775 95.6054 12.0582 95.7942C12.0574 95.8025 12.0537 95.8106 12.0529 95.8189C12.0515 95.8328 12.0528 95.847 12.0542 95.8611C12.0553 95.8781 12.0535 95.8947 12.0546 95.9117C12.0586 96.1197 12.1459 96.3081 12.2864 96.4431C12.2992 96.4557 12.3091 96.4679 12.3222 96.4776C12.3247 96.4807 12.3274 96.481 12.3299 96.4841C12.5023 96.6363 12.7338 96.7049 12.9638 96.6779L13.0609 96.6878C18.9357 97.2885 23.8606 99.8258 26.138 104.825C26.1536 105.014 26.2348 105.191 26.3676 105.326C26.5004 105.461 26.6763 105.545 26.8647 105.564C27.259 105.604 27.6153 105.358 27.7258 104.99C30.9708 100.553 36.3128 99.065 42.1986 99.6668L42.2763 99.6747C42.4498 99.7346 42.6322 99.7336 42.8009 99.6751C42.9506 99.6357 43.0847 99.5516 43.1854 99.4341C43.2861 99.3166 43.3487 99.1713 43.3647 99.0174C43.3783 98.8841 43.3547 98.7582 43.3047 98.6437C43.2947 98.6315 43.2878 98.6167 43.2809 98.602ZM29.524 87.5114L30.0655 82.2142C31.3742 83.4084 32.8212 84.4569 34.384 85.332L29.524 87.5114ZM35.0544 86.8144C34.6704 88.5678 34.4937 90.3508 34.5201 92.1237L30.1885 88.9961L35.0544 86.8144ZM27.9081 87.3462L23.5924 84.2287C25.2902 83.6906 26.9202 82.9582 28.45 82.0462L27.9081 87.3462ZM26.9569 88.6657L22.0937 90.8476C22.478 89.1195 22.6652 87.3432 22.6437 85.5512L26.9569 88.6657ZM21.1365 84.4601C21.2851 86.8674 21.0344 89.2826 20.3945 91.6081L14.8403 94.1009C16.9507 90.1423 17.5349 85.416 16.2144 80.9075L21.1365 84.4601ZM27.6217 90.1476L27.0836 95.4115C25.7772 94.2191 24.3389 93.1798 22.7967 92.3137L27.6217 90.1476ZM29.2376 90.3128L33.5272 93.4108C31.841 93.9474 30.2213 94.674 28.6994 95.5767L29.2376 90.3128ZM36.0328 93.2153C35.8744 90.8038 36.1181 88.3828 36.754 86.0512L42.3051 83.5609C40.0874 87.7189 39.7019 92.4767 40.9778 96.7899L36.0328 93.2153ZM41.5933 82.0995L36.0894 84.5666C33.9248 83.4965 31.9532 82.0738 30.2554 80.3568L30.7607 75.4149C33.1576 78.9984 37.0186 81.1857 41.5933 82.0995ZM29.1446 75.2525L28.6393 80.1944C26.6309 81.5318 24.4141 82.5262 22.0797 83.137L17.1865 79.6042C21.8484 79.6376 26.0721 78.2768 29.1446 75.2525ZM15.6139 95.5349L21.0974 93.0742C23.2683 94.149 25.2213 95.5718 26.8942 97.2633L26.3924 102.172C24.0043 98.6118 20.1636 96.4461 15.6139 95.5349ZM28.0079 102.34L28.5098 97.4313C30.5105 96.1032 32.7168 95.1145 35.0396 94.5052L39.9093 98.0217C35.2663 97.9958 31.0668 99.3395 28.0079 102.34Z" fill="#00A624"/>
</g>
<defs>
<clipPath id="clip0_2_1232">
<rect width="81.0435" height="81.0435" fill="white" transform="translate(37.4849) rotate(5.8375)"/>
</clipPath>
<clipPath id="clip1_2_1232">
<rect width="35.7224" height="35.7224" fill="white" transform="translate(12.6333 69.2329) rotate(5.8375)"/>
</clipPath>
</defs>
</svg>
