<svg width="21" height="17" viewBox="0 0 21 17" fill="none" xmlns="http://www.w3.org/2000/svg">
<g id="Group">
<path id="Vector" d="M1.5 16C2.86817 15.2101 4.42017 14.7942 6 14.7942C7.57983 14.7942 9.13183 15.2101 10.5 16C11.8682 15.2101 13.4202 14.7942 15 14.7942C16.5798 14.7942 18.1318 15.2101 19.5 16" stroke="#00A624" stroke-width="2" stroke-linecap="round" stroke-linejoin="round"/>
<path id="Vector_2" d="M1.5 3.00001C2.86817 2.21009 4.42017 1.79424 6 1.79424C7.57983 1.79424 9.13183 2.21009 10.5 3.00001C11.8682 2.21009 13.4202 1.79424 15 1.79424C16.5798 1.79424 18.1318 2.21009 19.5 3.00001" stroke="#00A624" stroke-width="2" stroke-linecap="round" stroke-linejoin="round"/>
<path id="Vector_3" d="M1.5 3V16" stroke="#00A624" stroke-width="2" stroke-linecap="round" stroke-linejoin="round"/>
<path id="Vector_4" d="M10.5 3V16" stroke="#00A624" stroke-width="2" stroke-linecap="round" stroke-linejoin="round"/>
<path id="Vector_5" d="M19.5 3V16" stroke="#00A624" stroke-width="2" stroke-linecap="round" stroke-linejoin="round"/>
</g>
</svg>
