<svg width="20" height="21" viewBox="0 0 20 21" fill="none" xmlns="http://www.w3.org/2000/svg">
<g id="Group">
<path id="Vector" d="M10 19.5C14.9706 19.5 19 15.4706 19 10.5C19 5.52944 14.9706 1.5 10 1.5C5.02944 1.5 1 5.52944 1 10.5C1 15.4706 5.02944 19.5 10 19.5Z" stroke="#CFD2D7" stroke-width="2" stroke-linecap="round" stroke-linejoin="round"/>
<path id="Vector_2" d="M10 15.5V15.51" stroke="#CFD2D7" stroke-width="2" stroke-linecap="round" stroke-linejoin="round"/>
<path id="Vector_3" d="M10 12C9.98159 11.6754 10.0692 11.3536 10.2495 11.083C10.4299 10.8125 10.6933 10.6079 11 10.5C11.3759 10.3563 11.7132 10.1272 11.9856 9.83097C12.2579 9.53468 12.4577 9.17923 12.5693 8.7926C12.6809 8.40597 12.7013 7.99871 12.6287 7.60288C12.5562 7.20705 12.3928 6.83346 12.1513 6.51153C11.9099 6.18959 11.597 5.9281 11.2373 5.74763C10.8776 5.56716 10.4809 5.47265 10.0785 5.47154C9.67611 5.47042 9.27892 5.56273 8.91824 5.7412C8.55756 5.91967 8.24323 6.17942 8 6.50001" stroke="#CFD2D7" stroke-width="2" stroke-linecap="round" stroke-linejoin="round"/>
</g>
</svg>
